<svg width="29" height="29" viewBox="0 0 29 29" fill="none" xmlns="http://www.w3.org/2000/svg">
<path d="M14.5 9.48951C11.7328 9.48951 9.48956 11.7327 9.48956 14.4999C9.48956 17.2671 11.7328 19.5103 14.5 19.5103C17.2672 19.5103 19.5104 17.2671 19.5104 14.4999C19.5104 11.7327 17.2672 9.48951 14.5 9.48951Z" fill="black"/>
<path fill-rule="evenodd" clip-rule="evenodd" d="M6.43635 0.750525C11.7522 0.1564 17.2478 0.1564 22.5636 0.750525C25.4903 1.07763 27.8509 3.38362 28.1944 6.32057C28.83 11.755 28.83 17.2449 28.1944 22.6793C27.8509 25.6162 25.4903 27.9222 22.5636 28.2493C17.2478 28.8434 11.7522 28.8434 6.43635 28.2493C3.50965 27.9222 1.14906 25.6162 0.805557 22.6793C0.169957 17.2449 0.169957 11.755 0.805558 6.32057C1.14906 3.38362 3.50965 1.07763 6.43635 0.750525ZM22.2083 5.24993C21.3569 5.24993 20.6666 5.94016 20.6666 6.79159C20.6666 7.64303 21.3569 8.33326 22.2083 8.33326C23.0597 8.33326 23.75 7.64303 23.75 6.79159C23.75 5.94016 23.0597 5.24993 22.2083 5.24993ZM7.17706 14.4999C7.17706 10.4556 10.4556 7.17701 14.5 7.17701C18.5443 7.17701 21.8229 10.4556 21.8229 14.4999C21.8229 18.5443 18.5443 21.8228 14.5 21.8228C10.4556 21.8228 7.17706 18.5443 7.17706 14.4999Z" fill="black"/>
</svg>
